<?xml version="1.0" encoding="iso-8859-1"?>
<!-- Generator: Adobe Illustrator 19.0.0, SVG Export Plug-In . SVG Version: 6.00 Build 0)  -->
<svg version="1.1" id="Capa_1" xmlns="http://www.w3.org/2000/svg" xmlns:xlink="http://www.w3.org/1999/xlink" x="0px" y="0px"
	 viewBox="0 0 436.767 436.767" style="enable-background:new 0 0 436.767 436.767;" xml:space="preserve">
<path style="fill:#4DCFE0;" d="M96.131,263.576H15.673C6.792,263.576,0,256.784,0,247.902V21.682C0,12.8,6.792,6.008,15.673,6.008
	h324.963c8.882,0,15.673,6.792,15.673,15.673v85.159h-31.347V37.355H31.347v194.873h64.784
	C96.131,232.229,96.131,263.576,96.131,263.576z"/>
<path style="fill:#1185E0;" d="M317.649,430.759c-4.18,0-8.359-1.567-11.494-5.224l-70.008-76.8H96.131
	c-8.882,0-15.673-6.792-15.673-15.673v-226.22c0-8.882,6.792-15.673,15.673-15.673h324.963c8.882,0,15.673,6.792,15.673,15.673
	v226.22c0,8.882-6.792,15.673-15.673,15.673h-72.098L332.8,418.743c-1.045,5.747-5.747,9.927-11.494,11.494
	C320.261,430.759,319.216,430.759,317.649,430.759z M111.804,317.388h131.135c4.18,0,8.359,2.09,11.494,5.224l54.335,60.082
	l12.016-52.767c1.567-7.314,7.837-12.016,15.151-12.016h68.963V122.514H111.804V317.388z"/>
<g>
</g>
<g>
</g>
<g>
</g>
<g>
</g>
<g>
</g>
<g>
</g>
<g>
</g>
<g>
</g>
<g>
</g>
<g>
</g>
<g>
</g>
<g>
</g>
<g>
</g>
<g>
</g>
<g>
</g>
</svg>
